<svg xmlns="http://www.w3.org/2000/svg" viewBox="0 0 1280 780" width="1280" height="780">
  <!-- Background -->
  <rect width="1280" height="780" fill="#F1F5F9"/>

  <!-- Sidebar -->
  <rect width="240" height="780" fill="#1A1A2E"/>
  <!-- Sidebar logo -->
  <rect x="16" y="16" width="208" height="56" rx="10" fill="#FF6B0015"/>
  <path d="M36 32 L52 38 L52 50 C52 58 45 64 36 67 C27 64 20 58 20 50 L20 38 Z" fill="#FF6B00"/>
  <path d="M29 48 L34 53 L43 43" stroke="white" stroke-width="2.5" fill="none" stroke-linecap="round" stroke-linejoin="round"/>
  <text x="58" y="40" font-family="Arial, sans-serif" font-size="15" font-weight="700" fill="white">SafeMine</text>
  <text x="58" y="58" font-family="Arial, sans-serif" font-size="10" fill="#94A3B8">SAFETY PLATFORM</text>

  <!-- Nav items -->
  <rect x="12" y="88" width="216" height="40" rx="8" fill="#FF6B0020"/>
  <rect x="20" y="100" width="4" height="16" rx="2" fill="#FF6B00"/>
  <text x="36" y="113" font-family="Arial, sans-serif" font-size="13" font-weight="600" fill="#FF6B00">⊞  Dashboard</text>

  <text x="36" y="153" font-family="Arial, sans-serif" font-size="13" fill="#94A3B8">⚠  Incidents</text>
  <text x="36" y="193" font-family="Arial, sans-serif" font-size="13" fill="#94A3B8">✓  Corrective Actions</text>
  <text x="36" y="233" font-family="Arial, sans-serif" font-size="13" fill="#94A3B8">👤  Users</text>
  <text x="36" y="273" font-family="Arial, sans-serif" font-size="13" fill="#94A3B8">📊  Reports</text>

  <!-- User info at bottom -->
  <rect x="12" y="700" width="216" height="60" rx="8" fill="#0F0F1E"/>
  <circle cx="40" cy="730" r="16" fill="#FF6B00"/>
  <text x="40" y="735" font-family="Arial" font-size="11" font-weight="700" fill="white" text-anchor="middle">SA</text>
  <text x="64" y="724" font-family="Arial, sans-serif" font-size="12" font-weight="600" fill="white">System Admin</text>
  <text x="64" y="740" font-family="Arial, sans-serif" font-size="10" fill="#64748B">admin@safemine.co.za</text>

  <!-- Main content area -->
  <!-- Top bar -->
  <rect x="240" y="0" width="1040" height="64" fill="white"/>
  <line x1="240" y1="64" x2="1280" y2="64" stroke="#E2E8F0" stroke-width="1"/>
  <text x="264" y="30" font-family="Arial, sans-serif" font-size="20" font-weight="700" fill="#1E293B">Safety Dashboard</text>
  <text x="264" y="50" font-family="Arial, sans-serif" font-size="12" fill="#64748B">Welcome back, System Administrator — Wednesday, 25 June 2026</text>
  <!-- Report button -->
  <rect x="1100" y="16" width="156" height="36" rx="8" fill="#FF6B00"/>
  <text x="1178" y="39" font-family="Arial, sans-serif" font-size="13" font-weight="600" fill="white" text-anchor="middle">+ Report Incident</text>

  <!-- Stat cards row 1 -->
  <!-- Card 1: Total -->
  <rect x="264" y="84" width="180" height="90" rx="10" fill="white"/>
  <rect x="264" y="84" width="180" height="90" rx="10" fill="none" stroke="#E2E8F0" stroke-width="1"/>
  <rect x="280" y="100" width="36" height="36" rx="8" fill="#FFF3E8"/>
  <text x="298" y="123" font-family="Arial" font-size="18" text-anchor="middle">⚠</text>
  <text x="330" y="115" font-family="Arial, sans-serif" font-size="26" font-weight="700" fill="#1E293B">24</text>
  <text x="330" y="133" font-family="Arial, sans-serif" font-size="11" fill="#64748B">Total Incidents</text>
  <text x="280" y="162" font-family="Arial, sans-serif" font-size="10" fill="#22C55E">↑ 3 this week</text>

  <!-- Card 2: Open -->
  <rect x="460" y="84" width="180" height="90" rx="10" fill="white"/>
  <rect x="460" y="84" width="180" height="90" rx="10" fill="none" stroke="#E2E8F0" stroke-width="1"/>
  <rect x="476" y="100" width="36" height="36" rx="8" fill="#FEE2E2"/>
  <text x="494" y="123" font-family="Arial" font-size="18" text-anchor="middle">🚨</text>
  <text x="526" y="115" font-family="Arial, sans-serif" font-size="26" font-weight="700" fill="#EF4444">8</text>
  <text x="526" y="133" font-family="Arial, sans-serif" font-size="11" fill="#64748B">Open Incidents</text>
  <text x="476" y="162" font-family="Arial, sans-serif" font-size="10" fill="#EF4444">↑ 2 since yesterday</text>

  <!-- Card 3: Critical -->
  <rect x="656" y="84" width="180" height="90" rx="10" fill="white"/>
  <rect x="656" y="84" width="180" height="90" rx="10" fill="none" stroke="#E2E8F0" stroke-width="1"/>
  <rect x="672" y="100" width="36" height="36" rx="8" fill="#FEE2E2"/>
  <text x="690" y="123" font-family="Arial" font-size="18" text-anchor="middle">🔴</text>
  <text x="722" y="115" font-family="Arial, sans-serif" font-size="26" font-weight="700" fill="#EF4444">3</text>
  <text x="722" y="133" font-family="Arial, sans-serif" font-size="11" fill="#64748B">Critical</text>
  <text x="672" y="162" font-family="Arial, sans-serif" font-size="10" fill="#94A3B8">Requires immediate action</text>

  <!-- Card 4: Closed -->
  <rect x="852" y="84" width="180" height="90" rx="10" fill="white"/>
  <rect x="852" y="84" width="180" height="90" rx="10" fill="none" stroke="#E2E8F0" stroke-width="1"/>
  <rect x="868" y="100" width="36" height="36" rx="8" fill="#DCFCE7"/>
  <text x="886" y="123" font-family="Arial" font-size="18" text-anchor="middle">✅</text>
  <text x="918" y="115" font-family="Arial, sans-serif" font-size="26" font-weight="700" fill="#16A34A">13</text>
  <text x="918" y="133" font-family="Arial, sans-serif" font-size="11" fill="#64748B">Closed</text>
  <text x="868" y="162" font-family="Arial, sans-serif" font-size="10" fill="#22C55E">↑ 5 this month</text>

  <!-- Card 5: This month -->
  <rect x="1048" y="84" width="180" height="90" rx="10" fill="white"/>
  <rect x="1048" y="84" width="180" height="90" rx="10" fill="none" stroke="#E2E8F0" stroke-width="1"/>
  <rect x="1064" y="100" width="36" height="36" rx="8" fill="#EFF6FF"/>
  <text x="1082" y="123" font-family="Arial" font-size="18" text-anchor="middle">📅</text>
  <text x="1114" y="115" font-family="Arial, sans-serif" font-size="26" font-weight="700" fill="#3B82F6">6</text>
  <text x="1114" y="133" font-family="Arial, sans-serif" font-size="11" fill="#64748B">This Month</text>
  <text x="1064" y="162" font-family="Arial, sans-serif" font-size="10" fill="#94A3B8">June 2026</text>

  <!-- Second row of cards -->
  <rect x="264" y="190" width="180" height="90" rx="10" fill="white"/>
  <rect x="264" y="190" width="180" height="90" rx="10" fill="none" stroke="#E2E8F0" stroke-width="1"/>
  <rect x="280" y="206" width="36" height="36" rx="8" fill="#FEF9C3"/>
  <text x="298" y="229" font-family="Arial" font-size="18" text-anchor="middle">🤕</text>
  <text x="330" y="221" font-family="Arial, sans-serif" font-size="26" font-weight="700" fill="#CA8A04">2</text>
  <text x="330" y="239" font-family="Arial, sans-serif" font-size="11" fill="#64748B">Injuries</text>
  <text x="280" y="268" font-family="Arial, sans-serif" font-size="10" fill="#94A3B8">Last 30 days</text>

  <rect x="460" y="190" width="180" height="90" rx="10" fill="white"/>
  <rect x="460" y="190" width="180" height="90" rx="10" fill="none" stroke="#E2E8F0" stroke-width="1"/>
  <rect x="476" y="206" width="36" height="36" rx="8" fill="#FFF3E8"/>
  <text x="494" y="229" font-family="Arial" font-size="18" text-anchor="middle">👁</text>
  <text x="526" y="221" font-family="Arial, sans-serif" font-size="26" font-weight="700" fill="#F97316">7</text>
  <text x="526" y="239" font-family="Arial, sans-serif" font-size="11" fill="#64748B">Near Misses</text>
  <text x="476" y="268" font-family="Arial, sans-serif" font-size="10" fill="#94A3B8">Requires review</text>

  <rect x="656" y="190" width="180" height="90" rx="10" fill="white"/>
  <rect x="656" y="190" width="180" height="90" rx="10" fill="none" stroke="#E2E8F0" stroke-width="1"/>
  <rect x="672" y="206" width="36" height="36" rx="8" fill="#FEE2E2"/>
  <text x="690" y="229" font-family="Arial" font-size="18" text-anchor="middle">⏰</text>
  <text x="722" y="221" font-family="Arial, sans-serif" font-size="26" font-weight="700" fill="#EF4444">4</text>
  <text x="722" y="239" font-family="Arial, sans-serif" font-size="11" fill="#64748B">Overdue Actions</text>
  <text x="672" y="268" font-family="Arial, sans-serif" font-size="10" fill="#EF4444">Action required</text>

  <rect x="852" y="190" width="180" height="90" rx="10" fill="white"/>
  <rect x="852" y="190" width="180" height="90" rx="10" fill="none" stroke="#E2E8F0" stroke-width="1"/>
  <rect x="868" y="206" width="36" height="36" rx="8" fill="#EFF6FF"/>
  <text x="886" y="229" font-family="Arial" font-size="18" text-anchor="middle">🔍</text>
  <text x="918" y="221" font-family="Arial, sans-serif" font-size="26" font-weight="700" fill="#3B82F6">5</text>
  <text x="918" y="239" font-family="Arial, sans-serif" font-size="11" fill="#64748B">Under Investigation</text>
  <text x="868" y="268" font-family="Arial, sans-serif" font-size="10" fill="#94A3B8">In progress</text>

  <rect x="1048" y="190" width="180" height="90" rx="10" fill="white"/>
  <rect x="1048" y="190" width="180" height="90" rx="10" fill="none" stroke="#E2E8F0" stroke-width="1"/>
  <rect x="1064" y="206" width="36" height="36" rx="8" fill="#DCFCE7"/>
  <text x="1082" y="229" font-family="Arial" font-size="18" text-anchor="middle">📋</text>
  <text x="1114" y="221" font-family="Arial, sans-serif" font-size="26" font-weight="700" fill="#16A34A">11</text>
  <text x="1114" y="239" font-family="Arial, sans-serif" font-size="11" fill="#64748B">DMR Notified</text>
  <text x="1064" y="268" font-family="Arial, sans-serif" font-size="10" fill="#94A3B8">Compliance</text>

  <!-- Recent Incidents table -->
  <rect x="264" y="300" width="964" height="460" rx="12" fill="white"/>
  <rect x="264" y="300" width="964" height="460" rx="12" fill="none" stroke="#E2E8F0" stroke-width="1"/>
  <text x="288" y="330" font-family="Arial, sans-serif" font-size="16" font-weight="700" fill="#1E293B">Recent Incidents</text>
  <rect x="1100" y="314" width="110" height="28" rx="6" fill="#F1F5F9"/>
  <text x="1155" y="332" font-family="Arial, sans-serif" font-size="12" fill="#64748B" text-anchor="middle">View all →</text>

  <!-- Table header -->
  <rect x="264" y="348" width="964" height="36" fill="#F8FAFC"/>
  <text x="288" y="370" font-family="Arial, sans-serif" font-size="12" font-weight="600" fill="#64748B">REFERENCE</text>
  <text x="420" y="370" font-family="Arial, sans-serif" font-size="12" font-weight="600" fill="#64748B">TITLE</text>
  <text x="640" y="370" font-family="Arial, sans-serif" font-size="12" font-weight="600" fill="#64748B">TYPE</text>
  <text x="760" y="370" font-family="Arial, sans-serif" font-size="12" font-weight="600" fill="#64748B">SEVERITY</text>
  <text x="880" y="370" font-family="Arial, sans-serif" font-size="12" font-weight="600" fill="#64748B">STATUS</text>
  <text x="1020" y="370" font-family="Arial, sans-serif" font-size="12" font-weight="600" fill="#64748B">DATE</text>
  <text x="1140" y="370" font-family="Arial, sans-serif" font-size="12" font-weight="600" fill="#64748B">ACTION</text>

  <!-- Row 1 -->
  <line x1="264" y1="384" x2="1228" y2="384" stroke="#F1F5F9" stroke-width="1"/>
  <text x="288" y="406" font-family="monospace" font-size="11" fill="#3B82F6">INC-2026-001</text>
  <text x="420" y="406" font-family="Arial, sans-serif" font-size="13" fill="#1E293B">Equipment failure — Level 3</text>
  <text x="420" y="420" font-family="Arial, sans-serif" font-size="11" fill="#94A3B8">Section C, Shaft 2</text>
  <rect x="640" y="394" width="88" height="22" rx="6" fill="#FEF9C3"/>
  <text x="684" y="409" font-family="Arial, sans-serif" font-size="11" fill="#854D0E" text-anchor="middle">Equipment</text>
  <rect x="760" y="394" width="78" height="22" rx="6" fill="#FEE2E2"/>
  <text x="799" y="409" font-family="Arial, sans-serif" font-size="11" fill="#991B1B" text-anchor="middle">CRITICAL</text>
  <rect x="880" y="394" width="116" height="22" rx="6" fill="#FEF9C3"/>
  <text x="938" y="409" font-family="Arial, sans-serif" font-size="11" fill="#854D0E" text-anchor="middle">Under Review</text>
  <text x="1020" y="406" font-family="Arial, sans-serif" font-size="12" fill="#64748B">25 Jun 2026</text>
  <rect x="1140" y="394" width="60" height="22" rx="6" fill="#EFF6FF"/>
  <text x="1170" y="409" font-family="Arial, sans-serif" font-size="11" fill="#1D4ED8" text-anchor="middle">View</text>

  <!-- Row 2 -->
  <line x1="264" y1="430" x2="1228" y2="430" stroke="#F1F5F9" stroke-width="1"/>
  <text x="288" y="452" font-family="monospace" font-size="11" fill="#3B82F6">INC-2026-002</text>
  <text x="420" y="452" font-family="Arial, sans-serif" font-size="13" fill="#1E293B">Near miss — falling object</text>
  <text x="420" y="466" font-family="Arial, sans-serif" font-size="11" fill="#94A3B8">Open Pit, Area 7</text>
  <rect x="640" y="440" width="80" height="22" rx="6" fill="#F1F5F9"/>
  <text x="680" y="455" font-family="Arial, sans-serif" font-size="11" fill="#475569" text-anchor="middle">Near Miss</text>
  <rect x="760" y="440" width="68" height="22" rx="6" fill="#FFF3E8"/>
  <text x="794" y="455" font-family="Arial, sans-serif" font-size="11" fill="#9A3412" text-anchor="middle">HIGH</text>
  <rect x="880" y="440" width="96" height="22" rx="6" fill="#EFF6FF"/>
  <text x="928" y="455" font-family="Arial, sans-serif" font-size="11" fill="#1D4ED8" text-anchor="middle">Investigating</text>
  <text x="1020" y="452" font-family="Arial, sans-serif" font-size="12" fill="#64748B">24 Jun 2026</text>
  <rect x="1140" y="440" width="60" height="22" rx="6" fill="#EFF6FF"/>
  <text x="1170" y="455" font-family="Arial, sans-serif" font-size="11" fill="#1D4ED8" text-anchor="middle">View</text>

  <!-- Row 3 -->
  <line x1="264" y1="476" x2="1228" y2="476" stroke="#F1F5F9" stroke-width="1"/>
  <text x="288" y="498" font-family="monospace" font-size="11" fill="#3B82F6">INC-2026-003</text>
  <text x="420" y="498" font-family="Arial, sans-serif" font-size="13" fill="#1E293B">Chemical spill — processing plant</text>
  <text x="420" y="512" font-family="Arial, sans-serif" font-size="11" fill="#94A3B8">Processing Plant B</text>
  <rect x="640" y="486" width="88" height="22" rx="6" fill="#F3E8FF"/>
  <text x="684" y="501" font-family="Arial, sans-serif" font-size="11" fill="#6B21A8" text-anchor="middle">Environmental</text>
  <rect x="760" y="486" width="78" height="22" rx="6" fill="#FEE2E2"/>
  <text x="799" y="501" font-family="Arial, sans-serif" font-size="11" fill="#991B1B" text-anchor="middle">CRITICAL</text>
  <rect x="880" y="486" width="100" height="22" rx="6" fill="#DCFCE7"/>
  <text x="930" y="501" font-family="Arial, sans-serif" font-size="11" fill="#14532D" text-anchor="middle">DMR Notified</text>
  <text x="1020" y="498" font-family="Arial, sans-serif" font-size="12" fill="#64748B">23 Jun 2026</text>
  <rect x="1140" y="486" width="60" height="22" rx="6" fill="#EFF6FF"/>
  <text x="1170" y="501" font-family="Arial, sans-serif" font-size="11" fill="#1D4ED8" text-anchor="middle">View</text>

  <!-- Row 4 -->
  <line x1="264" y1="522" x2="1228" y2="522" stroke="#F1F5F9" stroke-width="1"/>
  <text x="288" y="544" font-family="monospace" font-size="11" fill="#3B82F6">INC-2026-004</text>
  <text x="420" y="544" font-family="Arial, sans-serif" font-size="13" fill="#1E293B">Slip and fall — wet surface</text>
  <text x="420" y="558" font-family="Arial, sans-serif" font-size="11" fill="#94A3B8">Maintenance Workshop</text>
  <rect x="640" y="532" width="60" height="22" rx="6" fill="#F1F5F9"/>
  <text x="670" y="547" font-family="Arial, sans-serif" font-size="11" fill="#475569" text-anchor="middle">Injury</text>
  <rect x="760" y="532" width="72" height="22" rx="6" fill="#FFF3E8"/>
  <text x="796" y="547" font-family="Arial, sans-serif" font-size="11" fill="#9A3412" text-anchor="middle">MEDIUM</text>
  <rect x="880" y="532" width="64" height="22" rx="6" fill="#DCFCE7"/>
  <text x="912" y="547" font-family="Arial, sans-serif" font-size="11" fill="#14532D" text-anchor="middle">Closed</text>
  <text x="1020" y="544" font-family="Arial, sans-serif" font-size="12" fill="#64748B">22 Jun 2026</text>
  <rect x="1140" y="532" width="60" height="22" rx="6" fill="#EFF6FF"/>
  <text x="1170" y="547" font-family="Arial, sans-serif" font-size="11" fill="#1D4ED8" text-anchor="middle">View</text>

  <!-- Row 5 -->
  <line x1="264" y1="568" x2="1228" y2="568" stroke="#F1F5F9" stroke-width="1"/>
  <text x="288" y="590" font-family="monospace" font-size="11" fill="#3B82F6">INC-2026-005</text>
  <text x="420" y="590" font-family="Arial, sans-serif" font-size="13" fill="#1E293B">Electrical fault — transformer</text>
  <text x="420" y="604" font-family="Arial, sans-serif" font-size="11" fill="#94A3B8">Substation Alpha</text>
  <rect x="640" y="578" width="74" height="22" rx="6" fill="#FEF9C3"/>
  <text x="677" y="593" font-family="Arial, sans-serif" font-size="11" fill="#854D0E" text-anchor="middle">Electrical</text>
  <rect x="760" y="578" width="68" height="22" rx="6" fill="#FFF3E8"/>
  <text x="794" y="593" font-family="Arial, sans-serif" font-size="11" fill="#9A3412" text-anchor="middle">HIGH</text>
  <rect x="880" y="578" width="88" height="22" rx="6" fill="#FEF9C3"/>
  <text x="924" y="593" font-family="Arial, sans-serif" font-size="11" fill="#854D0E" text-anchor="middle">Reported</text>
  <text x="1020" y="590" font-family="Arial, sans-serif" font-size="12" fill="#64748B">21 Jun 2026</text>
  <rect x="1140" y="578" width="60" height="22" rx="6" fill="#EFF6FF"/>
  <text x="1170" y="593" font-family="Arial, sans-serif" font-size="11" fill="#1D4ED8" text-anchor="middle">View</text>
</svg>
