<svg xmlns="http://www.w3.org/2000/svg" viewBox="0 0 1280 780" width="1280" height="780">
  <rect width="1280" height="780" fill="#F1F5F9"/>

  <!-- Sidebar -->
  <rect width="240" height="780" fill="#1A1A2E"/>
  <rect x="16" y="16" width="208" height="56" rx="10" fill="#FF6B0015"/>
  <path d="M36 32 L52 38 L52 50 C52 58 45 64 36 67 C27 64 20 58 20 50 L20 38 Z" fill="#FF6B00"/>
  <path d="M29 48 L34 53 L43 43" stroke="white" stroke-width="2.5" fill="none" stroke-linecap="round" stroke-linejoin="round"/>
  <text x="58" y="40" font-family="Arial, sans-serif" font-size="15" font-weight="700" fill="white">SafeMine</text>
  <text x="58" y="58" font-family="Arial, sans-serif" font-size="10" fill="#94A3B8">SAFETY PLATFORM</text>
  <text x="36" y="113" font-family="Arial, sans-serif" font-size="13" fill="#64748B">⊞  Dashboard</text>
  <rect x="12" y="128" width="216" height="40" rx="8" fill="#FF6B0020"/>
  <rect x="20" y="140" width="4" height="16" rx="2" fill="#FF6B00"/>
  <text x="36" y="153" font-family="Arial, sans-serif" font-size="13" font-weight="600" fill="#FF6B00">⚠  Incidents</text>
  <text x="36" y="193" font-family="Arial, sans-serif" font-size="13" fill="#64748B">✓  Corrective Actions</text>
  <text x="36" y="233" font-family="Arial, sans-serif" font-size="13" fill="#64748B">👤  Users</text>
  <text x="36" y="273" font-family="Arial, sans-serif" font-size="13" fill="#64748B">📊  Reports</text>
  <rect x="12" y="700" width="216" height="60" rx="8" fill="#0F0F1E"/>
  <circle cx="40" cy="730" r="16" fill="#FF6B00"/>
  <text x="40" y="735" font-family="Arial" font-size="11" font-weight="700" fill="white" text-anchor="middle">SA</text>
  <text x="64" y="724" font-family="Arial, sans-serif" font-size="12" font-weight="600" fill="white">System Admin</text>
  <text x="64" y="740" font-family="Arial, sans-serif" font-size="10" fill="#64748B">ADMIN</text>

  <!-- Top bar -->
  <rect x="240" y="0" width="1040" height="64" fill="white"/>
  <line x1="240" y1="64" x2="1280" y2="64" stroke="#E2E8F0" stroke-width="1"/>
  <text x="264" y="30" font-family="Arial, sans-serif" font-size="20" font-weight="700" fill="#1E293B">Incidents</text>
  <text x="264" y="50" font-family="Arial, sans-serif" font-size="12" fill="#64748B">24 incidents found</text>
  <rect x="1100" y="16" width="156" height="36" rx="8" fill="#FF6B00"/>
  <text x="1178" y="39" font-family="Arial, sans-serif" font-size="13" font-weight="600" fill="white" text-anchor="middle">+ Report Incident</text>

  <!-- Filter bar -->
  <rect x="264" y="80" width="964" height="64" rx="10" fill="white"/>
  <rect x="264" y="80" width="964" height="64" rx="10" fill="none" stroke="#E2E8F0" stroke-width="1"/>
  <!-- Search -->
  <rect x="280" y="96" width="360" height="36" rx="8" fill="#F8FAFC" stroke="#E2E8F0" stroke-width="1"/>
  <text x="296" y="118" font-family="Arial, sans-serif" font-size="12" fill="#94A3B8">🔍  Search incidents, reference, location...</text>
  <!-- Severity select -->
  <rect x="656" y="96" width="136" height="36" rx="8" fill="#F8FAFC" stroke="#E2E8F0" stroke-width="1"/>
  <text x="672" y="118" font-family="Arial, sans-serif" font-size="12" fill="#94A3B8">Severity ▾</text>
  <!-- Status select -->
  <rect x="800" y="96" width="160" height="36" rx="8" fill="#F8FAFC" stroke="#E2E8F0" stroke-width="1"/>
  <text x="816" y="118" font-family="Arial, sans-serif" font-size="12" fill="#94A3B8">Status ▾</text>
  <!-- Type select -->
  <rect x="968" y="96" width="160" height="36" rx="8" fill="#F8FAFC" stroke="#E2E8F0" stroke-width="1"/>
  <text x="984" y="118" font-family="Arial, sans-serif" font-size="12" fill="#94A3B8">Type ▾</text>
  <text x="1140" y="118" font-family="Arial, sans-serif" font-size="11" fill="#3B82F6" text-anchor="middle">Clear</text>

  <!-- Table -->
  <rect x="264" y="160" width="964" height="606" rx="12" fill="white"/>
  <rect x="264" y="160" width="964" height="606" rx="12" fill="none" stroke="#E2E8F0" stroke-width="1"/>

  <!-- Table header -->
  <rect x="264" y="160" width="964" height="40" rx="12" fill="#F8FAFC"/>
  <rect x="264" y="184" width="964" height="16" fill="#F8FAFC"/>
  <text x="288" y="185" font-family="Arial, sans-serif" font-size="11" font-weight="600" fill="#64748B">REF</text>
  <text x="380" y="185" font-family="Arial, sans-serif" font-size="11" font-weight="600" fill="#64748B">TITLE / LOCATION</text>
  <text x="610" y="185" font-family="Arial, sans-serif" font-size="11" font-weight="600" fill="#64748B">TYPE</text>
  <text x="720" y="185" font-family="Arial, sans-serif" font-size="11" font-weight="600" fill="#64748B">SEVERITY</text>
  <text x="830" y="185" font-family="Arial, sans-serif" font-size="11" font-weight="600" fill="#64748B">STATUS</text>
  <text x="970" y="185" font-family="Arial, sans-serif" font-size="11" font-weight="600" fill="#64748B">REPORTED BY</text>
  <text x="1110" y="185" font-family="Arial, sans-serif" font-size="11" font-weight="600" fill="#64748B">DATE</text>

  <!-- Rows -->
  <line x1="264" y1="200" x2="1228" y2="200" stroke="#F1F5F9" stroke-width="1"/>

  <!-- define row helper — row 1 -->
  <text x="288" y="224" font-family="monospace" font-size="11" fill="#3B82F6">INC-2026-001</text>
  <text x="380" y="220" font-family="Arial, sans-serif" font-size="13" fill="#1E293B">Equipment failure — Level 3</text>
  <text x="380" y="234" font-family="Arial, sans-serif" font-size="11" fill="#94A3B8">Section C, Shaft 2</text>
  <rect x="610" y="210" width="88" height="22" rx="6" fill="#FEF9C3"/>
  <text x="654" y="225" font-family="Arial, sans-serif" font-size="11" fill="#854D0E" text-anchor="middle">Equipment</text>
  <rect x="720" y="210" width="78" height="22" rx="6" fill="#FEE2E2"/>
  <text x="759" y="225" font-family="Arial, sans-serif" font-size="11" fill="#991B1B" text-anchor="middle">CRITICAL</text>
  <rect x="830" y="210" width="100" height="22" rx="6" fill="#FEF3C7"/>
  <text x="880" y="225" font-family="Arial, sans-serif" font-size="11" fill="#92400E" text-anchor="middle">Investigating</text>
  <text x="970" y="222" font-family="Arial, sans-serif" font-size="12" fill="#475569">Safety Officer</text>
  <text x="1110" y="222" font-family="Arial, sans-serif" font-size="12" fill="#64748B">25 Jun 2026</text>

  <line x1="264" y1="244" x2="1228" y2="244" stroke="#F1F5F9" stroke-width="1"/>
  <text x="288" y="268" font-family="monospace" font-size="11" fill="#3B82F6">INC-2026-002</text>
  <text x="380" y="264" font-family="Arial, sans-serif" font-size="13" fill="#1E293B">Near miss — falling object</text>
  <text x="380" y="278" font-family="Arial, sans-serif" font-size="11" fill="#94A3B8">Open Pit, Area 7</text>
  <rect x="610" y="254" width="80" height="22" rx="6" fill="#F1F5F9"/>
  <text x="650" y="269" font-family="Arial, sans-serif" font-size="11" fill="#475569" text-anchor="middle">Near Miss</text>
  <rect x="720" y="254" width="68" height="22" rx="6" fill="#FFF3E8"/>
  <text x="754" y="269" font-family="Arial, sans-serif" font-size="11" fill="#9A3412" text-anchor="middle">HIGH</text>
  <rect x="830" y="254" width="88" height="22" rx="6" fill="#EFF6FF"/>
  <text x="874" y="269" font-family="Arial, sans-serif" font-size="11" fill="#1D4ED8" text-anchor="middle">Reported</text>
  <text x="970" y="266" font-family="Arial, sans-serif" font-size="12" fill="#475569">John Dube</text>
  <text x="1110" y="266" font-family="Arial, sans-serif" font-size="12" fill="#64748B">24 Jun 2026</text>

  <line x1="264" y1="288" x2="1228" y2="288" stroke="#F1F5F9" stroke-width="1"/>
  <text x="288" y="312" font-family="monospace" font-size="11" fill="#3B82F6">INC-2026-003</text>
  <text x="380" y="308" font-family="Arial, sans-serif" font-size="13" fill="#1E293B">Chemical spill — processing plant</text>
  <text x="380" y="322" font-family="Arial, sans-serif" font-size="11" fill="#94A3B8">Processing Plant B</text>
  <rect x="610" y="298" width="94" height="22" rx="6" fill="#F3E8FF"/>
  <text x="657" y="313" font-family="Arial, sans-serif" font-size="11" fill="#6B21A8" text-anchor="middle">Environmental</text>
  <rect x="720" y="298" width="78" height="22" rx="6" fill="#FEE2E2"/>
  <text x="759" y="313" font-family="Arial, sans-serif" font-size="11" fill="#991B1B" text-anchor="middle">CRITICAL</text>
  <rect x="830" y="298" width="100" height="22" rx="6" fill="#DCFCE7"/>
  <text x="880" y="313" font-family="Arial, sans-serif" font-size="11" fill="#14532D" text-anchor="middle">DMR Notified</text>
  <text x="970" y="310" font-family="Arial, sans-serif" font-size="12" fill="#475569">Safety Officer</text>
  <text x="1110" y="310" font-family="Arial, sans-serif" font-size="12" fill="#64748B">23 Jun 2026</text>

  <line x1="264" y1="332" x2="1228" y2="332" stroke="#F1F5F9" stroke-width="1"/>
  <text x="288" y="356" font-family="monospace" font-size="11" fill="#3B82F6">INC-2026-004</text>
  <text x="380" y="352" font-family="Arial, sans-serif" font-size="13" fill="#1E293B">Slip and fall — wet surface</text>
  <text x="380" y="366" font-family="Arial, sans-serif" font-size="11" fill="#94A3B8">Maintenance Workshop</text>
  <rect x="610" y="342" width="60" height="22" rx="6" fill="#F1F5F9"/>
  <text x="640" y="357" font-family="Arial, sans-serif" font-size="11" fill="#475569" text-anchor="middle">Injury</text>
  <rect x="720" y="342" width="72" height="22" rx="6" fill="#FFF3E8"/>
  <text x="756" y="357" font-family="Arial, sans-serif" font-size="11" fill="#9A3412" text-anchor="middle">MEDIUM</text>
  <rect x="830" y="342" width="64" height="22" rx="6" fill="#DCFCE7"/>
  <text x="862" y="357" font-family="Arial, sans-serif" font-size="11" fill="#14532D" text-anchor="middle">Closed</text>
  <text x="970" y="354" font-family="Arial, sans-serif" font-size="12" fill="#475569">Mike Sithole</text>
  <text x="1110" y="354" font-family="Arial, sans-serif" font-size="12" fill="#64748B">22 Jun 2026</text>

  <line x1="264" y1="376" x2="1228" y2="376" stroke="#F1F5F9" stroke-width="1"/>
  <text x="288" y="400" font-family="monospace" font-size="11" fill="#3B82F6">INC-2026-005</text>
  <text x="380" y="396" font-family="Arial, sans-serif" font-size="13" fill="#1E293B">Electrical fault — transformer</text>
  <text x="380" y="410" font-family="Arial, sans-serif" font-size="11" fill="#94A3B8">Substation Alpha</text>
  <rect x="610" y="386" width="74" height="22" rx="6" fill="#FEF9C3"/>
  <text x="647" y="401" font-family="Arial, sans-serif" font-size="11" fill="#854D0E" text-anchor="middle">Electrical</text>
  <rect x="720" y="386" width="68" height="22" rx="6" fill="#FFF3E8"/>
  <text x="754" y="401" font-family="Arial, sans-serif" font-size="11" fill="#9A3412" text-anchor="middle">HIGH</text>
  <rect x="830" y="386" width="88" height="22" rx="6" fill="#FEF9C3"/>
  <text x="874" y="401" font-family="Arial, sans-serif" font-size="11" fill="#92400E" text-anchor="middle">Reported</text>
  <text x="970" y="398" font-family="Arial, sans-serif" font-size="12" fill="#475569">Thabo Nkosi</text>
  <text x="1110" y="398" font-family="Arial, sans-serif" font-size="12" fill="#64748B">21 Jun 2026</text>

  <line x1="264" y1="420" x2="1228" y2="420" stroke="#F1F5F9" stroke-width="1"/>
  <text x="288" y="444" font-family="monospace" font-size="11" fill="#3B82F6">INC-2026-006</text>
  <text x="380" y="440" font-family="Arial, sans-serif" font-size="13" fill="#1E293B">Roof collapse — tunnel section</text>
  <text x="380" y="454" font-family="Arial, sans-serif" font-size="11" fill="#94A3B8">Tunnel 4B, Level 6</text>
  <rect x="610" y="430" width="74" height="22" rx="6" fill="#F3E8FF"/>
  <text x="647" y="445" font-family="Arial, sans-serif" font-size="11" fill="#6B21A8" text-anchor="middle">Structural</text>
  <rect x="720" y="430" width="78" height="22" rx="6" fill="#FEE2E2"/>
  <text x="759" y="445" font-family="Arial, sans-serif" font-size="11" fill="#991B1B" text-anchor="middle">CRITICAL</text>
  <rect x="830" y="430" width="100" height="22" rx="6" fill="#FEF3C7"/>
  <text x="880" y="445" font-family="Arial, sans-serif" font-size="11" fill="#92400E" text-anchor="middle">Investigating</text>
  <text x="970" y="442" font-family="Arial, sans-serif" font-size="12" fill="#475569">Safety Officer</text>
  <text x="1110" y="442" font-family="Arial, sans-serif" font-size="12" fill="#64748B">20 Jun 2026</text>

  <line x1="264" y1="464" x2="1228" y2="464" stroke="#F1F5F9" stroke-width="1"/>
  <text x="288" y="488" font-family="monospace" font-size="11" fill="#3B82F6">INC-2026-007</text>
  <text x="380" y="484" font-family="Arial, sans-serif" font-size="13" fill="#1E293B">Fire in control room</text>
  <text x="380" y="498" font-family="Arial, sans-serif" font-size="11" fill="#94A3B8">Control Block C</text>
  <rect x="610" y="474" width="48" height="22" rx="6" fill="#FEE2E2"/>
  <text x="634" y="489" font-family="Arial, sans-serif" font-size="11" fill="#991B1B" text-anchor="middle">Fire</text>
  <rect x="720" y="474" width="78" height="22" rx="6" fill="#FEE2E2"/>
  <text x="759" y="489" font-family="Arial, sans-serif" font-size="11" fill="#991B1B" text-anchor="middle">CRITICAL</text>
  <rect x="830" y="474" width="100" height="22" rx="6" fill="#DCFCE7"/>
  <text x="880" y="489" font-family="Arial, sans-serif" font-size="11" fill="#14532D" text-anchor="middle">DMR Notified</text>
  <text x="970" y="486" font-family="Arial, sans-serif" font-size="12" fill="#475569">John Dube</text>
  <text x="1110" y="486" font-family="Arial, sans-serif" font-size="12" fill="#64748B">18 Jun 2026</text>

  <!-- Pagination -->
  <rect x="264" y="730" width="964" height="36" rx="8" fill="#F8FAFC"/>
  <text x="288" y="752" font-family="Arial, sans-serif" font-size="12" fill="#64748B">Showing 1–7 of 24</text>
  <rect x="1060" y="737" width="32" height="22" rx="6" fill="white" stroke="#E2E8F0" stroke-width="1"/>
  <text x="1076" y="752" font-family="Arial, sans-serif" font-size="12" fill="#64748B" text-anchor="middle">‹</text>
  <rect x="1098" y="737" width="32" height="22" rx="6" fill="#FF6B00"/>
  <text x="1114" y="752" font-family="Arial, sans-serif" font-size="12" fill="white" text-anchor="middle">1</text>
  <rect x="1136" y="737" width="32" height="22" rx="6" fill="white" stroke="#E2E8F0" stroke-width="1"/>
  <text x="1152" y="752" font-family="Arial, sans-serif" font-size="12" fill="#64748B" text-anchor="middle">2</text>
  <rect x="1174" y="737" width="32" height="22" rx="6" fill="white" stroke="#E2E8F0" stroke-width="1"/>
  <text x="1190" y="752" font-family="Arial, sans-serif" font-size="12" fill="#64748B" text-anchor="middle">›</text>
</svg>
